<svg xmlns="http://www.w3.org/2000/svg" viewBox="0 0 120 120" fill="none">
  <defs>
    <linearGradient id="g1" x1="0%" y1="0%" x2="100%" y2="100%">
      <stop offset="0%" stop-color="#3b82f6"/>
      <stop offset="100%" stop-color="#8b5cf6"/>
    </linearGradient>
    <linearGradient id="g2" x1="0%" y1="100%" x2="100%" y2="0%">
      <stop offset="0%" stop-color="#22d3ee" stop-opacity="0.6"/>
      <stop offset="100%" stop-color="#3b82f6" stop-opacity="0.2"/>
    </linearGradient>
  </defs>
  <rect width="120" height="120" rx="28" fill="#1a2332"/>
  <rect width="120" height="120" rx="28" fill="url(#g2)"/>
  <path d="M60 22 C38 22 28 38 28 58 C28 78 42 92 60 92 C78 92 92 78 92 58" stroke="url(#g1)" stroke-width="5" stroke-linecap="round" fill="none"/>
  <path d="M48 58 C48 48 54 42 60 42 C66 42 72 48 72 58 C72 72 60 82 60 82 C60 82 48 72 48 58Z" fill="url(#g1)" opacity="0.9"/>
  <circle cx="60" cy="52" r="6" fill="#e8edf4"/>
  <path d="M36 68 Q60 88 84 68" stroke="#93c5fd" stroke-width="3" stroke-linecap="round" fill="none" opacity="0.5"/>
</svg>
